<?xml version="1.0" encoding="UTF-8" standalone="no"?>

<svg
   width="184mm"
   height="266mm"
   viewBox="0 0 184 266"
   version="1.1"
   id="svg1"
   xml:space="preserve"
   inkscape:version="1.4 (86a8ad7, 2024-10-11)"
   sodipodi:docname="canfusion_logo.svg"
   xmlns:inkscape="http://www.inkscape.org/namespaces/inkscape"
   xmlns:sodipodi="http://sodipodi.sourceforge.net/DTD/sodipodi-0.dtd"
   xmlns="http://www.w3.org/2000/svg"
   xmlns:svg="http://www.w3.org/2000/svg"><sodipodi:namedview
     id="namedview1"
     pagecolor="#ffffff"
     bordercolor="#000000"
     borderopacity="0"
     inkscape:showpageshadow="2"
     inkscape:pageopacity="0.0"
     inkscape:pagecheckerboard="false"
     inkscape:deskcolor="#d1d1d1"
     inkscape:document-units="mm"
     inkscape:zoom="1.4142136"
     inkscape:cx="358.14958"
     inkscape:cy="576.64558"
     inkscape:window-width="2560"
     inkscape:window-height="1377"
     inkscape:window-x="-8"
     inkscape:window-y="-8"
     inkscape:window-maximized="1"
     inkscape:current-layer="layer1" /><defs
     id="defs1" /><g
     inkscape:label="Layer 1"
     inkscape:groupmode="layer"
     id="layer1"><rect
       style="display:inline;fill:#000003;fill-opacity:1;stroke:#000000;stroke-width:0;stroke-dasharray:none"
       id="rect22"
       width="166.82552"
       height="86.453079"
       x="8.7142029"
       y="90.698204" /><path
       style="display:inline;fill:#000000;fill-opacity:1;stroke:#000000;stroke-width:1.1;stroke-dasharray:none"
       id="path19"
       sodipodi:type="arc"
       sodipodi:cx="92.253342"
       sodipodi:cy="64.49733"
       sodipodi:rx="91.374893"
       sodipodi:ry="63.444256"
       sodipodi:start="1.5520324"
       sodipodi:end="1.5428416"
       sodipodi:arc-type="arc"
       d="M 93.967793,127.93042 A 91.374893,63.444256 0 0 1 0.89871433,65.83347 91.374893,63.444256 0 0 1 90.11908,1.0703825 91.374893,63.444256 0 0 1 183.59816,62.869717 91.374893,63.444256 0 0 1 94.807369,127.9168"
       sodipodi:open="true" /><path
       style="display:inline;fill:#000000;fill-opacity:1;stroke:#000000;stroke-width:0;stroke-dasharray:none"
       id="path19-2"
       sodipodi:type="arc"
       sodipodi:cx="91.815674"
       sodipodi:cy="201.4948"
       sodipodi:rx="91.880424"
       sodipodi:ry="63.444256"
       sodipodi:start="1.5520324"
       sodipodi:end="1.5514846"
       sodipodi:arc-type="arc"
       d="m 93.53961,264.92788 a 91.880424,63.444256 0 0 1 -93.58794933,-62.234 91.880424,63.444256 0 0 1 90.11491533,-64.63184 91.880424,63.444256 0 0 1 93.612634,62.2163 91.880424,63.444256 0 0 1 -90.089277,64.64888"
       sodipodi:open="true" /><path
       style="display:inline;fill:#e6e6e6;fill-opacity:1;stroke:#000000;stroke-width:0;stroke-dasharray:none"
       id="path19-4"
       sodipodi:type="arc"
       sodipodi:cx="92.234276"
       sodipodi:cy="201.84819"
       sodipodi:rx="77.791222"
       sodipodi:ry="47.35833"
       sodipodi:start="1.5520324"
       sodipodi:end="1.5428416"
       sodipodi:arc-type="arc"
       d="M 93.693859,249.19818 A 77.791222,47.35833 0 0 1 14.460307,202.84556 77.791222,47.35833 0 0 1 90.417291,154.50278 77.791222,47.35833 0 0 1 169.99989,200.63325 77.791222,47.35833 0 0 1 94.408625,249.18802"
       sodipodi:open="true"
       inkscape:label="path19-4" /><path
       style="display:inline;fill:#cdcdcd;fill-opacity:1;stroke:#000000;stroke-width:0;stroke-dasharray:none"
       id="path23"
       sodipodi:type="arc"
       sodipodi:cx="96.475533"
       sodipodi:cy="195.76921"
       sodipodi:rx="71.850014"
       sodipodi:ry="35.47879"
       sodipodi:start="1.9746644"
       sodipodi:end="1.9742013"
       sodipodi:arc-type="slice"
       d="m 68.240047,228.39365 a 71.850014,35.47879 0 0 1 -37.837306,-46.56305 71.850014,35.47879 0 0 1 94.292979,-18.68906 71.850014,35.47879 0 0 1 37.85914,46.55873 71.850014,35.47879 0 0 1 -94.284213,18.69984 l 28.204886,-32.6309 z"
       transform="matrix(0.99978904,0.0205397,-0.02154572,0.99976786,0,0)" /><path
       style="display:inline;fill:#0ba206;fill-opacity:1;stroke:#000000;stroke-width:0;stroke-dasharray:none"
       id="path22"
       sodipodi:type="arc"
       sodipodi:cx="93.002579"
       sodipodi:cy="196.54424"
       sodipodi:rx="67.858574"
       sodipodi:ry="28.436171"
       sodipodi:start="1.9746644"
       sodipodi:end="1.9742013"
       sodipodi:arc-type="slice"
       d="m 66.335642,222.69265 a 67.858574,28.436171 0 0 1 -35.735353,-37.32018 67.858574,28.436171 0 0 1 89.054781,-14.97924 67.858574,28.436171 0 0 1 35.75597,37.31672 67.858574,28.436171 0 0 1 -89.046498,14.98788 l 26.638037,-26.15359 z" /><rect
       style="display:inline;fill:#0ba206;fill-opacity:1;stroke:#000000;stroke-width:0;stroke-dasharray:none"
       id="rect23"
       width="135.74734"
       height="61.752083"
       x="25.123009"
       y="134.70245" /><path
       style="display:inline;fill:#bbd901;fill-opacity:1;stroke:#000000;stroke-width:0;stroke-dasharray:none"
       id="path20"
       sodipodi:type="arc"
       sodipodi:cx="93.005302"
       sodipodi:cy="131.96252"
       sodipodi:rx="67.881912"
       sodipodi:ry="36.145531"
       sodipodi:start="1.9746644"
       sodipodi:end="1.9742013"
       sodipodi:arc-type="slice"
       d="M 66.329194,165.20007 A 67.881912,36.145531 0 0 1 30.581551,117.76197 67.881912,36.145531 0 0 1 119.66696,98.721693 67.881912,36.145531 0 0 1 155.43523,146.15538 67.881912,36.145531 0 0 1 66.358104,165.20664 L 93.005302,131.96252 Z" /><rect
       style="display:inline;fill:#bbd903;fill-opacity:1;stroke:#000000;stroke-width:0;stroke-dasharray:none"
       id="rect21"
       width="135.74409"
       height="52.209843"
       x="25.12351"
       y="83.274353" /><path
       style="display:inline;fill:#e6e6e6;fill-opacity:1;stroke:#000000;stroke-width:0;stroke-dasharray:none"
       id="path17-4"
       sodipodi:type="arc"
       sodipodi:cx="92.522705"
       sodipodi:cy="63.934731"
       sodipodi:rx="77.203468"
       sodipodi:ry="45.512352"
       sodipodi:start="1.9746644"
       sodipodi:end="1.9742013"
       sodipodi:arc-type="slice"
       d="M 62.183429,105.78551 A 77.203468,45.512352 0 0 1 21.526913,46.054216 77.203468,45.512352 0 0 1 122.84554,22.079807 77.203468,45.512352 0 0 1 163.52552,81.805554 77.203468,45.512352 0 0 1 62.216309,105.79379 L 92.522705,63.934731 Z" /><path
       style="display:inline;fill:#cdcdcd;fill-opacity:1;stroke:#000000;stroke-width:0;stroke-dasharray:none"
       id="path17"
       sodipodi:type="arc"
       sodipodi:cx="92.632477"
       sodipodi:cy="62.411926"
       sodipodi:rx="68.44558"
       sodipodi:ry="36.396992"
       sodipodi:start="1.9746644"
       sodipodi:end="1.9742013"
       sodipodi:arc-type="slice"
       d="M 65.734859,95.8807 A 68.44558,36.396992 0 0 1 29.69038,48.112579 68.44558,36.396992 0 0 1 119.51552,28.939841 68.44558,36.396992 0 0 1 155.5808,76.703523 68.44558,36.396992 0 0 1 65.764009,95.88732 L 92.632477,62.411926 Z" /><path
       style="opacity:1;fill:#0ba206;fill-opacity:1;stroke:#000000;stroke-width:0"
       d="m 25.446508,135.4832 -0.02687,-0.0775 -0.03617,-0.0992 -0.04961,-0.16847 -0.05271,-0.17776 -0.09095,-0.24392 -0.06615,-0.18086 v 0.94981 z"
       id="path3" /><path
       style="opacity:1;fill:#0ba206;fill-opacity:1;stroke:#000000;stroke-width:0"
       d="m 160.56593,135.48727 0.0738,-0.14908 0.0826,-0.2134 0.0502,-0.20463 0.0354,-0.18416 0.0384,-0.18125 0.0207,-0.114 v 1.0436 z"
       id="path4" /></g><g
     inkscape:groupmode="layer"
     id="layer2"
     inkscape:label="Layer 2"><path
       style="display:inline;opacity:1;fill:#000000;fill-opacity:1;stroke:#000000;stroke-width:0;stroke-dasharray:none"
       id="path28"
       sodipodi:type="arc"
       sodipodi:cx="94.160057"
       sodipodi:cy="165.08698"
       sodipodi:rx="41.352325"
       sodipodi:ry="40.751015"
       sodipodi:start="1.9746644"
       sodipodi:end="1.9742013"
       sodipodi:arc-type="slice"
       d="m 77.909497,202.55948 a 41.352325,40.751015 0 0 1 -21.776761,-53.48242 41.352325,40.751015 0 0 1 54.269074,-21.4663 41.352325,40.751015 0 0 1 21.78933,53.47746 41.352325,40.751015 0 0 1 -54.264032,21.47867 l 16.232949,-37.47991 z" /><path
       style="display:inline;opacity:1;fill:#ffff00;fill-opacity:1;stroke:#000000;stroke-width:0;stroke-dasharray:none"
       id="path27"
       sodipodi:type="arc"
       sodipodi:cx="94.160057"
       sodipodi:cy="165.08698"
       sodipodi:rx="38.542065"
       sodipodi:ry="37.891296"
       sodipodi:start="1.9746644"
       sodipodi:end="1.9742013"
       sodipodi:arc-type="slice"
       d="m 79.013868,199.92983 a 38.542065,37.891296 0 0 1 -20.296835,-49.72927 38.542065,37.891296 0 0 1 50.581007,-19.95989 38.542065,37.891296 0 0 1 20.30855,49.72465 38.542065,37.891296 0 0 1 -50.576308,19.97141 l 15.129775,-34.84975 z" /><path
       style="opacity:1;fill:#000000;fill-opacity:1;stroke:#000000;stroke-width:0;stroke-dasharray:none"
       d="m 128.86184,165.13483 -0.053,-1.36813 -0.0245,-1.13183 -0.10978,-1.01608 -0.1959,-1.59709 -0.20031,-1.04994 -0.18285,-0.98491 -0.19662,-0.99285 -0.21733,-0.7666 -0.22685,-0.84538 -0.25068,-0.80413 -0.20627,-0.59532 -0.24912,-0.71163 -0.35651,-0.93844 -0.29624,-0.75711 -0.53138,-1.21779 -0.41744,-0.82253 -0.33264,-0.65444 -0.3578,-0.65061 -0.24643,-0.43065 -0.24299,-0.42868 -0.60452,-1.01729 -0.38469,-0.58823 -0.34949,-0.52214 -0.38894,-0.51741 -0.36592,-0.48581 -0.31355,-0.4098 -0.32133,-0.42803 -0.37785,-0.46518 -0.37597,-0.45046 -0.40564,-0.4541 -0.44241,-0.49153 -0.48236,-0.51777 -0.55011,-0.56331 -0.59324,-0.57847 -0.45215,-0.41292 -0.42158,-0.39852 -0.52617,-0.45882 -0.59533,-0.50193 -0.72772,-0.5815 -0.88828,-0.67406 -0.61433,-0.45787 -0.69377,-0.45507 -0.92848,-0.57089 -0.81797,-0.50393 -13.038558,22.55104 0.235187,0.14019 0.18694,0.11709 0.249797,0.19911 0.42935,0.33173 0.289217,0.23471 0.22694,0.21341 0.170137,0.17417 0.16093,0.1705 0.17846,0.18221 0.13955,0.15979 0.14652,0.15893 0.0865,0.13085 0.13103,0.15486 0.094,0.13192 0.0936,0.12687 0.0829,0.12875 0.0841,0.12944 0.0802,0.1223 0.081,0.12926 0.0775,0.124 0.11466,0.22805 0.19425,0.34846 0.097,0.20814 0.15989,0.39414 0.10116,0.30109 0.0808,0.22522 0.0909,0.26316 0.075,0.29065 0.0924,0.38766 0.076,0.42398 0.0508,0.42783 0.0348,0.36821 0.016,0.38485 -0.0231,0.20653 -0.0104,0.0581 z"
       id="path26-8" /><path
       style="opacity:1;fill:#000000;fill-opacity:1;stroke:#000000;stroke-width:0;stroke-dasharray:none"
       d="m 76.426598,195.29579 1.211336,0.63816 0.992443,0.5447 0.934841,0.41297 1.481071,0.62889 1.009429,0.35149 0.944382,0.33411 0.958144,0.32614 0.77256,0.19509 0.845545,0.22623 0.821739,0.18497 0.618687,0.11903 0.740847,0.14007 0.990964,0.16047 0.803794,0.122 1.320324,0.14871 0.921044,0.0498 0.733077,0.0392 0.742344,0.0154 0.496157,0.002 0.492747,0.004 1.183254,-0.0149 0.701757,-0.039 0.626927,-0.0416 0.642554,-0.0781 0.603687,-0.074 0.511667,-0.0667 0.531347,-0.0643 0.591777,-0.0946 0.578097,-0.10037 0.59608,-0.12424 0.64688,-0.13738 0.68958,-0.15885 0.7629,-0.19475 0.79759,-0.22453 0.58367,-0.18511 0.55592,-0.16584 0.66044,-0.22627 0.73235,-0.2646 0.86745,-0.33948 1.02789,-0.43224 0.7037,-0.30309 0.74098,-0.37329 0.95865,-0.51864 0.8454,-0.45642 -13.010478,-22.56725 -0.23901,0.13359 -0.19487,0.10335 -0.297327,0.11678 -0.501957,0.20596 -0.347877,0.13312 -0.29829,0.0898 -0.235897,0.0603 -0.22813,0.0541 -0.24702,0.0634 -0.208157,0.041 -0.2109,0.0474 -0.156567,0.009 -0.19963,0.036 -0.16124,0.0155 -0.156667,0.0176 -0.15295,0.007 -0.15415,0.008 -0.14602,0.008 -0.152437,0.006 -0.14614,0.005 -0.25482,-0.0147 -0.398907,-0.006 -0.228747,-0.0201 -0.42128,-0.0586 -0.311327,-0.0629 -0.23545,-0.0426 -0.273347,-0.0529 -0.28921,-0.0804 -0.381917,-0.11381 -0.405177,-0.14617 -0.395907,-0.16992 -0.33628,-0.15397 -0.341287,-0.17857 -0.16731,-0.12327 -0.0451,-0.038 z"
       id="path26-8-9" /><path
       style="opacity:1;fill:#000000;fill-opacity:1;stroke:#000000;stroke-width:0;stroke-dasharray:none"
       d="m 76.384337,134.67839 -1.158331,0.73377 -0.967946,0.59019 -0.825063,0.60625 -1.28517,0.97325 -0.809114,0.70208 -0.761539,0.6542 -0.761517,0.67017 -0.555233,0.5745 -0.618693,0.62237 -0.57106,0.62239 -0.412428,0.47877 -0.491729,0.57454 -0.634456,0.78203 -0.507555,0.63842 -0.788952,1.07465 -0.503653,0.77677 -0.400488,0.61848 -0.384512,0.6385 -0.249812,0.43092 -0.249839,0.42694 -0.578727,1.03757 -0.317105,0.63051 -0.277438,0.56668 -0.253643,0.59862 -0.237759,0.56273 -0.198072,0.47895 -0.209989,0.49487 -0.213964,0.56272 -0.202127,0.5537 -0.190445,0.58135 -0.204466,0.63219 -0.207221,0.68015 -0.212792,0.76201 -0.204349,0.80719 -0.131525,0.60114 -0.134338,0.56731 -0.134265,0.68866 -0.137024,0.77052 -0.139727,0.92578 -0.139614,1.11205 -0.08937,0.76494 -0.04721,0.83266 -0.03017,1.09522 -0.02743,0.96535 26.049066,0.0163 0.004,-0.27521 0.008,-0.22159 0.0475,-0.31752 0.0726,-0.54049 0.0587,-0.36976 0.0714,-0.3048 0.0657,-0.23567 0.0672,-0.22579 0.0686,-0.2469 0.0686,-0.20182 0.0644,-0.20742 0.0705,-0.14082 0.0686,-0.19189 0.0672,-0.14815 0.0631,-0.14523 0.0704,-0.13667 0.0701,-0.13821 0.0661,-0.13114 0.071,-0.13572 0.0687,-0.12974 0.140145,-0.21444 0.20465,-0.34424 0.13178,-0.18904 0.261387,-0.33728 0.21014,-0.23941 0.15462,-0.18356 0.182477,-0.21138 0.21424,-0.21136 0.289517,-0.27527 0.32918,-0.27926 0.345107,-0.25925 0.301477,-0.21536 0.32529,-0.20736 0.190407,-0.0837 0.0555,-0.0202 z"
       id="path26-8-9-1" /><path
       style="opacity:1;fill:#000000;fill-opacity:1;stroke:#000000;stroke-width:0;stroke-dasharray:none"
       id="path26"
       sodipodi:type="arc"
       sodipodi:cx="93.868004"
       sodipodi:cy="165.06464"
       sodipodi:rx="5.8534899"
       sodipodi:ry="5.8534899"
       sodipodi:start="1.9746644"
       sodipodi:end="1.9742013"
       sodipodi:arc-type="slice"
       d="m 91.56771,170.4472 a 5.8534899,5.8534899 0 0 1 -3.082536,-7.68223 5.8534899,5.8534899 0 0 1 7.681877,-3.08343 5.8534899,5.8534899 0 0 1 3.084315,7.68152 5.8534899,5.8534899 0 0 1 -7.681163,3.0852 l 2.297801,-5.38362 z" /></g></svg>
